<svg width="281" height="60" viewBox="0 0 281 60" fill="none" xmlns="http://www.w3.org/2000/svg">
<path d="M12.52 16.08C15.4533 16.08 18.0267 16.6533 20.24 17.8C22.48 18.9467 24.2 20.5867 25.4 22.72C26.6267 24.8267 27.24 27.28 27.24 30.08C27.24 32.88 26.6267 35.3333 25.4 37.44C24.2 39.52 22.48 41.1333 20.24 42.28C18.0267 43.4267 15.4533 44 12.52 44H2.76V16.08H12.52ZM12.32 39.24C15.2533 39.24 17.52 38.44 19.12 36.84C20.72 35.24 21.52 32.9867 21.52 30.08C21.52 27.1733 20.72 24.9067 19.12 23.28C17.52 21.6267 15.2533 20.8 12.32 20.8H8.36V39.24H12.32ZM29.9919 32.84C29.9919 30.6 30.4319 28.6133 31.3119 26.88C32.2185 25.1467 33.4319 23.8133 34.9519 22.88C36.4985 21.9467 38.2185 21.48 40.1119 21.48C41.7652 21.48 43.2052 21.8133 44.4319 22.48C45.6852 23.1467 46.6852 23.9867 47.4319 25V21.84H53.0719V44H47.4319V40.76C46.7119 41.8 45.7119 42.6667 44.4319 43.36C43.1785 44.0267 41.7252 44.36 40.0719 44.36C38.2052 44.36 36.4985 43.88 34.9519 42.92C33.4319 41.96 32.2185 40.6133 31.3119 38.88C30.4319 37.12 29.9919 35.1067 29.9919 32.84ZM47.4319 32.92C47.4319 31.56 47.1652 30.4 46.6319 29.44C46.0985 28.4533 45.3785 27.7067 44.4719 27.2C43.5652 26.6667 42.5919 26.4 41.5519 26.4C40.5119 26.4 39.5519 26.6533 38.6719 27.16C37.7919 27.6667 37.0719 28.4133 36.5119 29.4C35.9785 30.36 35.7119 31.5067 35.7119 32.84C35.7119 34.1733 35.9785 35.3467 36.5119 36.36C37.0719 37.3467 37.7919 38.1067 38.6719 38.64C39.5785 39.1733 40.5385 39.44 41.5519 39.44C42.5919 39.44 43.5652 39.1867 44.4719 38.68C45.3785 38.1467 46.0985 37.4 46.6319 36.44C47.1652 35.4533 47.4319 34.28 47.4319 32.92ZM64.1413 25.28C64.8613 24.1067 65.7946 23.1867 66.9413 22.52C68.1146 21.8533 69.4479 21.52 70.9413 21.52V27.4H69.4613C67.7013 27.4 66.3679 27.8133 65.4613 28.64C64.5813 29.4667 64.1413 30.9067 64.1413 32.96V44H58.5413V21.84H64.1413V25.28ZM87.8331 44L80.3131 34.56V44H74.7131V14.4H80.3131V31.24L87.7531 21.84H95.0331L85.2731 32.96L95.1131 44H87.8331ZM144.924 16.08L137.124 44H130.524L125.284 24.12L119.804 44L113.244 44.04L105.724 16.08H111.724L116.644 37.76L122.324 16.08H128.564L133.924 37.64L138.884 16.08H144.924ZM169.18 32.44C169.18 33.24 169.127 33.96 169.02 34.6H152.82C152.954 36.2 153.514 37.4533 154.5 38.36C155.487 39.2667 156.7 39.72 158.14 39.72C160.22 39.72 161.7 38.8267 162.58 37.04H168.62C167.98 39.1733 166.754 40.9333 164.94 42.32C163.127 43.68 160.9 44.36 158.26 44.36C156.127 44.36 154.207 43.8933 152.5 42.96C150.82 42 149.5 40.6533 148.54 38.92C147.607 37.1867 147.14 35.1867 147.14 32.92C147.14 30.6267 147.607 28.6133 148.54 26.88C149.474 25.1467 150.78 23.8133 152.46 22.88C154.14 21.9467 156.074 21.48 158.26 21.48C160.367 21.48 162.247 21.9333 163.9 22.84C165.58 23.7467 166.874 25.04 167.78 26.72C168.714 28.3733 169.18 30.28 169.18 32.44ZM163.38 30.84C163.354 29.4 162.834 28.2533 161.82 27.4C160.807 26.52 159.567 26.08 158.1 26.08C156.714 26.08 155.54 26.5067 154.58 27.36C153.647 28.1867 153.074 29.3467 152.86 30.84H163.38ZM171.828 32.84C171.828 30.6 172.268 28.6133 173.148 26.88C174.054 25.1467 175.268 23.8133 176.788 22.88C178.334 21.9467 180.054 21.48 181.948 21.48C183.601 21.48 185.041 21.8133 186.268 22.48C187.521 23.1467 188.521 23.9867 189.268 25V21.84H194.908V44H189.268V40.76C188.548 41.8 187.548 42.6667 186.268 43.36C185.014 44.0267 183.561 44.36 181.908 44.36C180.041 44.36 178.334 43.88 176.788 42.92C175.268 41.96 174.054 40.6133 173.148 38.88C172.268 37.12 171.828 35.1067 171.828 32.84ZM189.268 32.92C189.268 31.56 189.001 30.4 188.468 29.44C187.934 28.4533 187.214 27.7067 186.308 27.2C185.401 26.6667 184.428 26.4 183.388 26.4C182.348 26.4 181.388 26.6533 180.508 27.16C179.628 27.6667 178.908 28.4133 178.348 29.4C177.814 30.36 177.548 31.5067 177.548 32.84C177.548 34.1733 177.814 35.3467 178.348 36.36C178.908 37.3467 179.628 38.1067 180.508 38.64C181.414 39.1733 182.374 39.44 183.388 39.44C184.428 39.44 185.401 39.1867 186.308 38.68C187.214 38.1467 187.934 37.4 188.468 36.44C189.001 35.4533 189.268 34.28 189.268 32.92ZM206.897 26.44V37.16C206.897 37.9067 207.071 38.4533 207.417 38.8C207.791 39.12 208.404 39.28 209.257 39.28H211.857V44H208.337C203.617 44 201.257 41.7067 201.257 37.12V26.44H198.617V21.84H201.257V16.36H206.897V21.84H211.857V26.44H206.897ZM228.365 21.52C230.045 21.52 231.538 21.8933 232.845 22.64C234.152 23.36 235.165 24.44 235.885 25.88C236.632 27.2933 237.005 29 237.005 31V44H231.405V31.76C231.405 30 230.965 28.6533 230.085 27.72C229.205 26.76 228.005 26.28 226.485 26.28C224.938 26.28 223.712 26.76 222.805 27.72C221.925 28.6533 221.485 30 221.485 31.76V44H215.885V14.4H221.485V24.6C222.205 23.64 223.165 22.8933 224.365 22.36C225.565 21.8 226.898 21.52 228.365 21.52ZM262.93 32.44C262.93 33.24 262.877 33.96 262.77 34.6H246.57C246.704 36.2 247.264 37.4533 248.25 38.36C249.237 39.2667 250.45 39.72 251.89 39.72C253.97 39.72 255.45 38.8267 256.33 37.04H262.37C261.73 39.1733 260.504 40.9333 258.69 42.32C256.877 43.68 254.65 44.36 252.01 44.36C249.877 44.36 247.957 43.8933 246.25 42.96C244.57 42 243.25 40.6533 242.29 38.92C241.357 37.1867 240.89 35.1867 240.89 32.92C240.89 30.6267 241.357 28.6133 242.29 26.88C243.224 25.1467 244.53 23.8133 246.21 22.88C247.89 21.9467 249.824 21.48 252.01 21.48C254.117 21.48 255.997 21.9333 257.65 22.84C259.33 23.7467 260.624 25.04 261.53 26.72C262.464 28.3733 262.93 30.28 262.93 32.44ZM257.13 30.84C257.104 29.4 256.584 28.2533 255.57 27.4C254.557 26.52 253.317 26.08 251.85 26.08C250.464 26.08 249.29 26.5067 248.33 27.36C247.397 28.1867 246.824 29.3467 246.61 30.84H257.13ZM272.618 25.28C273.338 24.1067 274.271 23.1867 275.418 22.52C276.591 21.8533 277.924 21.52 279.418 21.52V27.4H277.938C276.178 27.4 274.844 27.8133 273.938 28.64C273.058 29.4667 272.618 30.9067 272.618 32.96V44H267.018V21.84H272.618V25.28Z" fill="white"/>
</svg>
